<svg xmlns="http://www.w3.org/2000/svg" viewBox="0 0 1091 327" xml:space="preserve" width="1091" height="327">
  <path fill="#FFFEFE" d="M1092 51v277c-74.02 0-148.042 0-222.31-.281 6.331-1.848 12.324-5.109 12.94-12.153.905-10.34.234-20.817.234-31.368h-11.866c0 8.516.016 16.642-.005 24.768-.017 6.124-2.24 8.25-8.495 8.202-5.84-.043-7.733-2.06-7.77-8.351-.027-4.658-.007-9.316-.007-13.974v-10.798h-11.964c0 10.15-.213 20.07.078 29.976.182 6.17 4.207 9.868 9.63 12.173 1.498.637 3.023 1.206 4.535 1.806-11.354 0-22.708 0-34.335-.296 10.406-3.78 13.302-7.73 13.317-18.85.005-3.666.082-7.334-.044-10.995-.215-6.209-3.058-10.823-8.808-13.369-7.538-3.336-15.194-3.355-22.781-.205-4.774 1.983-8.27 5.553-8.69 10.735-.533 6.592-.629 13.3-.048 19.88.688 7.81 7.195 10.482 13.389 13.1-26.688 0-53.375 0-80.32-.283 14.403-4.97 15.882-12.928 13.6-28.344l-21.546 3.573 1.727 9.398h7.994c-2.337 5.124-6.293 5.327-10.28 4.58-3.84-.719-6.084-3.253-6.047-7.406.02-2.166-.005-4.332 0-6.499.018-8.623 3.806-11.067 12.497-9.603 4.575.77 9.485-.456 14.866-.823-5.12-8.047-14.053-11.888-22.428-10.278-8.037 1.545-15.232 5.264-16.283 13.943-1.145 9.45-3.503 19.89 6.028 27.227 1.561 1.201 3.45 1.978 5.196 2.936.99.543 1.997 1.054 2.996 1.579-43.688 0-87.375 0-131.352-.32 2.047-1.148 4.474-1.787 6.701-2.847 4.772-2.272 7.476-6.203 7.389-11.481-.081-4.868-3.257-7.952-7.52-9.643-3.84-1.524-7.905-2.465-11.832-3.78-2.523-.844-4.976-1.9-7.461-2.862 7.5-5.794 15.16-3.036 23.18-2.324l1.837-9.43c-8.84-2.798-17.476-3.468-26.158-1.035-6.948 1.948-10.642 6.362-10.818 12.088-.173 5.6 2.878 9.242 10.242 11.765 4.075 1.395 8.32 2.293 12.385 3.713 1.342.47 2.36 1.869 3.525 2.843-1.296.841-2.507 2.176-3.906 2.418-2.734.47-5.611.67-8.36.362-4.058-.454-8.056-1.45-12.06-2.212-2.523 9.275-2.522 9.271 6.509 12.08.275.085.468.437.699.665-22.02 0-44.042 0-66.289-.27 4.019-1.909 8.263-3.546 13.056-5.396l-5.421-8.378c-7.406 1.453-14.806 7.087-22.127-1.889 9.153-1.466 17.341-2.689 25.482-4.173 1.268-.231 3.127-1.486 3.348-2.55 2.377-11.463-3.171-19.772-14.837-22.646-14.03-3.456-25.404 5.319-25.411 19.605-.001 2.666.132 5.34-.023 7.996-.454 7.784 3.856 12.39 10.25 15.62 1.6.809 3.312 1.394 4.972 2.081-25.688 0-51.375 0-77.333-.294 6.173-2.066 12.228-5.134 12.777-12.329.79-10.346.202-20.797.202-31.111h-11.77c0 8.27.012 16.078-.003 23.886-.013 6.863-1.955 8.958-8.293 9.012-6.32.054-8.418-2.135-8.453-8.86-.019-3.66-.004-7.32-.004-10.98v-13.125h-11.916c0 10.01-.369 19.647.112 29.241.417 8.332 6.745 11.924 13.681 14.56-11.354 0-22.708 0-34.336-.306 3.741-1.982 7.756-3.66 12.218-5.524l-5.261-8.225c-7.561 1.507-14.949 7.055-22.235-1.86 8.162-1.32 15.356-2.396 22.517-3.666 7.246-1.285 7.231-1.369 6.87-8.734-.52-10.58-9.356-17.875-21.335-17.612-11.575.255-19.457 7.577-19.529 18.158-.022 3.325.09 6.654-.022 9.975-.267 7.879 3.956 12.697 10.639 15.876 1.464.696 2.981 1.282 4.474 1.918H1c0-59.02 0-118.042.337-177.317 4.714 33.438 19.332 61.798 44.543 84.698-.075-2.053-.5-3.959-1.153-5.783-4.741-13.247-7.827-26.797-7.98-40.949-.189-17.489-.695-34.976-.732-52.464-.129-60.667 51.981-107.146 112.122-99.21 39.181 5.171 66.8 27.016 80.574 63.877 13.637 36.497 6.904 70.717-18.683 100.157-6.237 7.175-9.106 13.7-8.486 22.848.623 9.195.137 18.465.137 28.48 1.956-1.075 3.104-1.66 4.208-2.32 45.442-27.155 71.227-82.314 62.908-134.557-8.705-54.667-48.268-97.618-102.04-110.724C161.198 3.38 155.587 2.24 150 1h942c0 8.404 0 16.733-.46 25.63-28.7.566-56.939.566-85.162.566v23.816h29.68v71.556h26.405V51zM177.972 237.53v-10.409c-11.207 2.521-21.91 5.509-32.812 7.272-32.017 5.18-51.893-19.222-50.641-43.319.88-16.948.132-33.978.202-50.972.014-3.485.024-7.053.726-10.44 4.216-20.342 21.79-33.616 42.939-32.656 19.486.884 35.633 16.53 37.868 36.695.974 8.781-.213 10.826-8.256 14.016-15.15 6.01-30.328 11.95-45.431 18.073-1.396.566-3.321 2.215-3.347 3.398-.253 11.459-.152 22.925-.152 34.857 1.837-.587 3.248-.955 4.598-1.482 18.9-7.376 37.633-15.217 56.727-22.052 22.815-8.167 35.324-27.76 30.117-55.301-8.056-42.612-44.894-68.56-87.971-62.177C89.26 67.965 61.23 98.367 60.06 131.945c-.765 21.964-.978 44.008-.028 65.955 1.245 28.755 15.446 50.289 40.83 63.673 24.367 12.849 49.692 9.351 74.841 2.112 1.068-.307 2.12-2.715 2.167-4.177.225-6.99.101-13.991.101-21.978m159.92-183.888c-.297 10.964-.565 21.929-.902 32.891-.406 13.205 5.553 23.09 16.196 30.244 13.09 8.802 27.563 10.114 42.622 6.75 9.606-2.145 18.526-5.89 26.496-12.183l-10.527-16.96c-9.622 2.542-18.49 5.278-27.536 7.163-8.904 1.855-18.088-3.539-20.593-11.828l63.289-10.064c0-5.71-.085-11.173.017-16.633.251-13.554-5.57-24.137-17.047-30.7-6.616-3.785-14.329-6.532-21.861-7.666-20.607-3.102-44.31 7.725-50.153 28.986m304.354 49.46c2.8 3.48 5.154 7.48 8.48 10.351 13.713 11.84 29.799 13.766 46.902 10.048 9.606-2.088 18.458-5.958 26.417-12.189l-10.842-16.87c-9.777 2.56-18.502 5.21-27.392 7.069-8.841 1.848-17.642-3.258-20.735-11.734l63.38-10.106c0-7.5.311-14.481-.077-21.423-.508-9.114-4.965-16.4-11.722-22.371-16.23-14.343-43.743-15.824-61.842-3.211-10.504 7.32-16.504 17.027-16.024 30.302.3 8.313-.3 16.667.192 24.962.289 4.868 1.927 9.657 3.263 15.171M865.998 87.4c3.639 1.16 7.407 2.034 10.86 3.601 1.727.784 4.143 2.99 3.985 4.272-.22 1.778-2.37 4.427-4.044 4.723-7.13 1.26-14.473 2.871-21.58 2.32-9.684-.75-19.225-3.353-29.213-5.234l-3.748 20.795c1.325.585 2.345 1.1 3.41 1.494 14.001 5.176 28.515 6.69 43.27 5.348 10.198-.927 20.03-3.474 28.372-9.926 15.338-11.86 14.016-32.356-2.905-41.593-4.912-2.681-10.363-4.503-15.733-6.191-8.081-2.541-16.377-4.408-24.426-7.039-2.018-.659-3.44-3.138-5.137-4.78 1.813-1.503 3.56-3.101 5.474-4.462.759-.539 1.887-.749 2.856-.773 8.622-.211 17.26-.692 25.867-.382 5.56.2 11.076 1.59 16.924 2.494l3.697-21.23c-15.453-4.804-30.973-6.453-46.586-4.1-7.4 1.115-14.88 3.717-21.55 7.15-8.88 4.572-13.582 12.753-13.437 22.938.146 10.283 5.91 17.414 14.986 21.148 9.023 3.713 18.56 6.18 28.658 9.427M531.255 62.5V27.53H504.68v5.61c0 17.658.048 35.316-.023 52.974-.032 8.12-2.647 12.625-9.836 14.176-5.346 1.154-11.256 1.264-16.637.297-7.024-1.262-10.096-6.18-10.107-13.444-.026-17.991-.009-35.982-.01-53.973v-5.64h-25.905c-.161 1.038-.392 1.828-.393 2.62-.002 20.489-.25 40.983.129 61.466.264 14.316 7.896 24.113 20.998 29.38 12.904 5.187 26.319 5.526 39.727 2.309 19.681-4.722 28.62-16.26 28.632-36.318.006-7.829.001-15.658.001-24.488m399.573 16.793-19.334 43.609c6.815 0 12.695-.533 18.434.139 6.742.789 10.718-1.411 12.249-8.044.815-3.528 3.183-4.36 6.665-4.267 8.985.242 18.01.523 26.962-.074 5.998-.4 9.242 1.425 10.71 7.25.45 1.79 2.248 4.538 3.545 4.604 8.225.422 16.481.214 25.073.214-.24-1.307-.236-1.978-.483-2.537-13.337-30.091-26.678-60.181-40.121-90.225-.507-1.132-2.019-2.546-3.095-2.574-8.246-.215-16.5-.118-25.894-.118 4.902 6.168 3.583 11.414.798 17.16-5.435 11.213-10.204 22.748-15.51 34.863M573.455 88.5v34.052h26.664v-71.8h29.552v-23.15h-85.306v23.49h29.09zm122.51 114.982 11.915-34.868c1.097 2.989 1.686 4.496 2.206 6.027 7.597 22.363 15.238 44.71 22.707 67.116.97 2.909 2.056 4.45 5.442 4.248 3.111-.184 5.405-.058 6.756-3.956 10.186-29.388 20.68-58.669 31.052-87.992.51-1.44.784-2.964 1.194-4.547-10.76-1.013-10.761-1.013-13.93 8.23-7.442 21.712-14.878 43.427-22.336 65.134-.5 1.456-1.162 2.856-2.136 5.223-.922-2.632-1.483-4.158-1.992-5.702-7.601-23.062-15.263-46.105-22.714-69.215-1.037-3.217-2.379-4.443-5.87-4.357-3.258.08-5.06.712-6.082 4.13-2.86 9.558-6.098 19.003-9.212 28.485-5.052 15.386-10.125 30.766-15.473 47.014-.832-2.122-1.352-3.321-1.777-4.554-8.13-23.586-16.213-47.188-24.454-70.735-.544-1.554-2.102-3.561-3.493-3.842-2.94-.592-6.081-.18-9.166-.18.084 1.05.041 1.399.146 1.695 10.86 30.737 21.78 61.452 32.533 92.227 1.3 3.72 3.993 2.548 6.45 2.874 2.797.372 4.145-.744 5.03-3.424 4.224-12.791 8.634-25.52 13.203-39.03M742.796 63.5v59.175h65.982l4.115-23.546h-43.797V27.672h-26.3zm209.069 117.56c3.843-16.367-4.284-28.971-21.46-30.845-13.17-1.437-26.568-.81-39.865-1.073-3.096-.06-6.195-.009-9.2-.009v95.943c14.058 0 27.701.006 41.345-.007 2.163-.001 4.424.307 6.47-.205 5.6-1.4 11.442-2.466 16.577-4.934 8.746-4.202 12.572-11.832 12.45-21.574-.118-9.394-4.918-15.572-12.878-19.744-2.029-1.063-4.148-1.953-4.963-2.333 3.705-4.766 7.477-9.617 11.524-15.218M337.12 202.177c3.384 24.781 18.308 40.544 41.81 44.161 19.102 2.94 38.424-5.905 48.42-22.164 10.688-17.388 10.092-40.38-1.466-56.581-11.214-15.72-31.11-23.248-50.272-19.02-24.453 5.396-39.184 25.53-38.492 53.604m143.223-32.026c-4.12-5.232-8.706-10.172-12.232-15.779-3.667-5.829-8.407-5.937-14.078-4.718v95.014h10.206v-77.652c1.657 1.93 2.724 3.089 3.697 4.322 18.049 22.875 36.228 45.649 54.008 68.73 3.619 4.7 7.345 5.986 12.558 4.515v-95.002h-10.7v75.808a138270 138270 0 0 0-43.459-55.238m319.279-21.017h-6.197v95.552H862.8v-9.745h-58.385v-33.3h51.864v-9.86h-51.903v-32.916h57.974v-9.73zm-224.028 42.748h-6.48v-32.977h57.666v-9.425h-68.47v95.325h69.277v-9.927h-58.36v-33.271h51.508v-9.725zm186.319 132.333v-10.714c8.91-1.442 8.915-1.445 12.179 5.728.757 1.664 1.187 3.57 2.28 4.96.961 1.224 2.558 2.46 4.02 2.668 2.895.414 5.89.122 9.537.122-1.88-4.37-3.697-8.084-5.025-11.965-.47-1.375-.348-3.746.538-4.658 4.414-4.546 5.051-10 4.315-15.772-.72-5.653-4.11-10.244-8.557-10.42-10.242-.403-20.511-.128-30.977-.128v43.813c4.265-.992 7.96-1.852 11.69-3.634M889.908 308.5v18.133h12.012v-13.747c5.176 0 9.498-.13 13.808.032 5.86.219 10.497-1.556 12.928-7.273 2.655-6.246 1.565-14.91-2.527-18.782-1.278-1.21-3.057-2.625-4.637-2.66-10.394-.237-20.797-.123-31.584-.123zm-276.325-9.446-12.48 28.327c5.067-.5 11.394.325 12.257-1.472 2.97-6.19 7.727-4.578 12.234-4.67 4.116-.084 8.897-1.367 10.423 4.654.122.48 1.329.945 2.045.968 3.228.103 6.46.045 10.598.045-6.415-14.402-12.376-27.859-18.459-41.26-.376-.83-1.677-1.675-2.601-1.74-3.1-.217-6.224-.082-8.042-.082a1955 1955 0 0 1-5.975 15.23m63.887-4.93 5.229-.23v-9.802h-38.35v10.032c2.69 0 5.172.261 7.578-.055 4.937-.648 6.201 1.447 6.012 6.143-.352 8.738-.101 17.5-.101 26.355h12.234v-32.443zm-217.414 15.38V294.09h13.407v-9.841h-38.2v10.02h12.9v32.388h11.893zm83.42 17.48h11.28l1.631-11.027h-19.672V284.14h-11.474v42.845z"/>
  <path fill="#FA515D" d="M149.531 1c6.055 1.24 11.666 2.38 17.225 3.736 53.77 13.106 93.334 56.057 102.039 110.724 8.319 52.243-17.466 107.402-62.908 134.557-1.104.66-2.252 1.245-4.208 2.32 0-10.015.486-19.285-.137-28.48-.62-9.149 2.249-15.673 8.486-22.848 25.587-29.44 32.32-63.66 18.683-100.157-13.774-36.86-41.393-58.706-80.574-63.877-60.14-7.936-112.25 38.543-112.122 99.21.037 17.488.543 34.975.732 52.464.153 14.152 3.239 27.702 7.98 40.949.652 1.824 1.078 3.73 1.153 5.783-25.21-22.9-39.83-51.26-44.543-85.166C1 140.645 1 131.292 1.335 121.25 9.973 61.937 49.213 17.912 105.21 4.417 110.129 3.232 115.07 2.137 120 1z"/>
  <path fill="#FA525E" d="M1092 50.531c-9.64.469-19.279.469-29.537.469v71.568h-26.406V51.012h-29.679V27.196c28.223 0 56.462 0 85.162-.098.46 7.59.46 15.277.46 23.433"/>
  <path fill="#FFFEFE" d="M119.531 1c-4.462 1.137-9.402 2.232-14.321 3.417C49.213 17.912 9.973 61.937 1.335 120.782 1 81.073 1 41.147 1 1z"/>
  <path fill="#999" d="M356.458 328c-1.95-.636-3.468-1.222-4.932-1.918-6.683-3.18-10.906-7.997-10.64-15.876.113-3.321.001-6.65.023-9.975.072-10.581 7.954-17.903 19.53-18.158 11.978-.263 20.814 7.031 21.334 17.612.361 7.365.376 7.45-6.87 8.734-7.16 1.27-14.355 2.346-22.517 3.666 7.286 8.915 14.674 3.367 22.235 1.86l5.26 8.225c-4.461 1.864-8.476 3.542-12.686 5.524-3.556.306-6.918.306-10.737.306m8.69-28.12 4.03-1.354c-2.278-5.133-6.62-7.025-11.545-5.185-3.683 1.376-5.74 3.796-4.19 8.255 3.713-.56 7.292-1.1 11.706-1.717M493.454 328c-2.114-.687-3.826-1.272-5.426-2.08-6.394-3.23-10.704-7.837-10.25-15.62.155-2.658.022-5.331.023-7.997.007-14.286 11.38-23.06 25.41-19.605 11.667 2.874 17.215 11.183 14.838 22.645-.22 1.065-2.08 2.32-3.348 2.551-8.14 1.484-16.329 2.707-25.482 4.173 7.321 8.976 14.721 3.342 22.127 1.89l5.421 8.377c-4.793 1.85-9.037 3.487-13.524 5.395-3.274.271-6.304.271-9.789.271m10.255-28.48c.684-.874 2.083-1.908 1.93-2.595-.682-3.043-6.752-5.116-10.853-3.677-3.744 1.313-6.167 3.654-4.871 8.393 4.518-.66 8.763-1.281 13.794-2.12M809.463 328c-6.657-2.618-13.164-5.29-13.852-13.1-.58-6.58-.485-13.288.049-19.88.42-5.182 3.915-8.752 8.689-10.735 7.587-3.15 15.243-3.131 22.78.205 5.751 2.546 8.594 7.16 8.809 13.37.126 3.66.049 7.328.044 10.993-.015 11.121-2.911 15.07-13.786 18.851-4.22.296-8.245.296-12.733.296m-1.398-13.842c3.124 3.962 7.452 3.672 11.364 2.314 1.858-.645 3.88-3.33 4.203-5.352.65-4.053.499-8.316.097-12.435-.481-4.925-4.308-5.763-8.433-5.779-4.006-.015-7.7 1.034-8.017 5.62-.339 4.924.24 9.912.786 15.632M717.458 328c-1.457-.525-2.464-1.036-3.454-1.58-1.746-.957-3.635-1.734-5.196-2.935-9.53-7.336-7.173-17.776-6.028-27.227 1.05-8.679 8.246-12.398 16.283-13.943 8.375-1.61 17.309 2.23 22.428 10.278-5.38.367-10.291 1.593-14.866.823-8.691-1.464-12.479.98-12.497 9.603-.005 2.167.02 4.333 0 6.499-.037 4.153 2.208 6.687 6.047 7.406 3.987.747 7.943.544 10.28-4.58h-7.994l-1.727-9.398 21.545-3.573c2.283 15.416.804 23.374-14.068 28.344-3.572.283-6.934.283-10.753.283"/>
  <path fill="#989898" d="M857.46 328a48 48 0 0 1-4.994-1.806c-5.424-2.305-9.45-6.003-9.63-12.173-.292-9.905-.079-19.825-.079-29.976h11.964v10.798c0 4.658-.02 9.316.007 13.974.037 6.291 1.93 8.308 7.77 8.351 6.254.047 8.478-2.078 8.495-8.202.021-8.126.005-16.252.005-24.768h11.866c0 10.551.671 21.029-.233 31.368-.617 7.044-6.61 10.305-13.41 12.153-3.914.281-7.607.281-11.76.281"/>
  <path fill="#999" d="M570.466 328c-.697-.228-.89-.58-1.165-.665-9.031-2.809-9.032-2.805-6.509-12.08 4.004.761 8.002 1.758 12.06 2.212 2.749.308 5.626.109 8.36-.362 1.4-.242 2.61-1.577 3.906-2.418-1.166-.974-2.183-2.374-3.525-2.843-4.065-1.42-8.31-2.318-12.385-3.713-7.364-2.523-10.415-6.166-10.242-11.765.176-5.726 3.87-10.14 10.818-12.088 8.682-2.433 17.318-1.763 26.158 1.035l-1.836 9.43c-8.021-.712-15.682-3.47-23.181 2.324 2.485.962 4.938 2.018 7.461 2.863 3.927 1.314 7.992 2.255 11.831 3.779 4.264 1.691 7.44 4.775 7.52 9.643.088 5.278-2.616 9.209-7.388 11.48-2.227 1.06-4.654 1.7-7.17 2.849-4.868.319-9.557.319-14.713.319m-168.003 0c-7.399-2.636-13.727-6.228-14.144-14.56-.48-9.594-.112-19.23-.112-29.24h11.916v13.124c0 3.66-.015 7.32.004 10.98.035 6.725 2.133 8.914 8.453 8.86 6.338-.054 8.28-2.15 8.293-9.012.015-7.808.004-15.617.004-23.886h11.77c0 10.314.587 20.765-.203 31.111-.549 7.195-6.604 10.263-13.246 12.329-4.223.294-8.247.294-12.735.294"/>
  <path fill="#FA515D" d="M177.972 238.025c0 7.492.124 14.493-.101 21.483-.047 1.462-1.099 3.87-2.167 4.177-25.15 7.24-50.474 10.737-74.842-2.112-25.383-13.384-39.584-34.918-40.829-63.673-.95-21.947-.737-43.991.028-65.955 1.17-33.578 29.2-63.98 62.478-68.912 43.077-6.383 79.915 19.565 87.971 62.177 5.207 27.54-7.302 47.134-30.117 55.301-19.094 6.835-37.827 14.676-56.727 22.052-1.35.527-2.761.895-4.598 1.482 0-11.932-.1-23.398.152-34.857.026-1.183 1.951-2.832 3.347-3.398 15.103-6.123 30.281-12.063 45.43-18.073 8.044-3.19 9.23-5.235 8.257-14.016-2.235-20.164-18.382-35.811-37.868-36.695-21.15-.96-38.723 12.314-42.94 32.656-.701 3.387-.711 6.955-.725 10.44-.07 16.994.678 34.024-.202 50.972-1.252 24.097 18.624 48.499 50.64 43.32 10.902-1.764 21.606-4.752 32.813-7.273z"/>
  <path fill="#FA525E" d="M337.963 53.232c5.773-20.85 29.476-31.678 50.083-28.576 7.532 1.134 15.245 3.881 21.861 7.665 11.476 6.564 17.298 17.147 17.047 30.701-.102 5.46-.017 10.922-.017 16.633L363.648 89.72c2.505 8.29 11.69 13.683 20.593 11.828 9.046-1.885 17.914-4.62 27.536-7.162l10.527 16.959c-7.97 6.294-16.89 10.038-26.496 12.183-15.06 3.364-29.531 2.052-42.622-6.75-10.643-7.155-16.602-17.039-16.196-30.244.337-10.962.605-21.927.973-33.301m28.732.024c-3.834 3.965-4.323 8.602-2.953 14.116l35.967-5.812c.177-4.57-.873-6.741-4.455-9.618-8.171-6.563-18.704-6.258-28.559 1.314m275.4 49.499c-1.184-5.17-2.822-9.958-3.11-14.826-.493-8.295.107-16.649-.193-24.962-.48-13.275 5.52-22.982 16.024-30.302 18.1-12.613 45.612-11.132 61.842 3.21 6.757 5.972 11.214 13.258 11.722 22.372.388 6.942.078 13.922.078 21.423l-63.38 10.106c3.092 8.476 11.893 13.582 20.734 11.734 8.89-1.858 17.615-4.51 27.392-7.07l10.842 16.871c-7.959 6.231-16.81 10.101-26.417 12.19-17.103 3.717-33.19 1.791-46.901-10.049-3.327-2.872-5.68-6.87-8.633-10.697m46.296-54.834c-14.85-2.97-25.57 5.938-22.735 19.4l36.601-5.91c-1.405-7.993-6.677-11.22-13.866-13.49m177.214 39.36c-9.705-3.13-19.242-5.597-28.265-9.31-9.077-3.734-14.84-10.865-14.986-21.148-.145-10.185 4.557-18.366 13.438-22.938 6.669-3.433 14.15-6.035 21.549-7.15 15.613-2.353 31.133-.704 46.586 4.1l-3.697 21.23c-5.848-.905-11.365-2.294-16.924-2.494-8.608-.31-17.245.17-25.867.382-.969.024-2.097.234-2.856.773-1.915 1.36-3.66 2.959-5.474 4.461 1.696 1.643 3.12 4.122 5.137 4.781 8.049 2.631 16.345 4.498 24.426 7.039 5.37 1.688 10.82 3.51 15.733 6.191 16.921 9.237 18.243 29.734 2.905 41.593-8.343 6.452-18.174 8.999-28.373 9.926-14.754 1.341-29.268-.172-43.27-5.348-1.064-.393-2.084-.909-3.41-1.494l3.749-20.795c9.988 1.881 19.529 4.485 29.213 5.235 7.107.55 14.45-1.062 21.58-2.321 1.673-.296 3.824-2.945 4.044-4.723.158-1.282-2.258-3.488-3.985-4.272-3.453-1.567-7.221-2.44-11.253-3.718"/>
  <path fill="#FA515D" d="M531.255 63c0 8.33.005 16.159 0 23.988-.014 20.059-8.952 31.596-28.633 36.318-13.408 3.217-26.823 2.878-39.727-2.309-13.102-5.267-20.734-15.064-20.998-29.38-.38-20.483-.131-40.977-.129-61.467 0-.79.232-1.581.393-2.619h25.906v5.639c0 17.99-.017 35.982.01 53.973.01 7.263 3.082 12.182 10.106 13.444 5.381.967 11.29.857 16.637-.297 7.189-1.551 9.804-6.056 9.836-14.176.071-17.658.023-35.316.023-52.974v-5.61h26.576z"/>
  <path fill="#FA525E" d="M930.958 78.936c5.175-11.758 9.944-23.293 15.379-34.505 2.785-5.747 4.104-10.993-.798-17.16 9.395 0 17.648-.098 25.894.117 1.076.028 2.588 1.442 3.095 2.574 13.443 30.044 26.784 60.134 40.12 90.225.248.56.244 1.23.484 2.537-8.592 0-16.848.208-25.073-.214-1.297-.066-3.095-2.815-3.546-4.604-1.467-5.825-4.71-7.65-10.71-7.25-8.95.597-17.976.316-26.96.074-3.483-.093-5.851.739-6.666 4.267-1.531 6.633-5.507 8.833-12.249 8.044-5.739-.672-11.619-.139-18.434-.139a29785 29785 0 0 0 19.464-43.966m37.166-1.613-4.731-10.449-10.269 23.438h20.793a7522 7522 0 0 0-5.793-12.99M573.454 88V51.092h-29.09v-23.49h85.306v23.15h-29.552v71.8h-26.664z"/>
  <path fill="#FA5460" d="M695.85 203.862c-4.456 13.13-8.866 25.86-13.09 38.651-.885 2.68-2.233 3.796-5.03 3.424-2.457-.326-5.15.846-6.45-2.874-10.752-30.775-21.674-61.49-32.533-92.227-.105-.296-.062-.644-.146-1.695 3.085 0 6.226-.412 9.166.18 1.391.28 2.949 2.288 3.493 3.842 8.24 23.547 16.323 47.149 24.454 70.735.425 1.233.945 2.432 1.777 4.554 5.348-16.248 10.42-31.628 15.473-47.014 3.114-9.482 6.352-18.927 9.212-28.485 1.022-3.418 2.824-4.05 6.082-4.13 3.491-.086 4.833 1.14 5.87 4.357 7.45 23.11 15.113 46.153 22.714 69.215.509 1.544 1.07 3.07 1.992 5.702.974-2.367 1.636-3.767 2.136-5.223 7.458-21.707 14.894-43.422 22.337-65.135 3.168-9.242 3.169-9.242 13.929-8.229-.41 1.583-.684 3.107-1.194 4.547-10.372 29.323-20.866 58.604-31.052 87.992-1.351 3.898-3.645 3.772-6.756 3.956-3.386.201-4.473-1.34-5.442-4.248-7.469-22.405-15.11-44.753-22.707-67.116-.52-1.53-1.11-3.038-2.206-6.027-4.271 12.5-8.094 23.684-12.028 35.248"/>
  <path fill="#FA525E" d="M742.796 63V27.672h26.3V99.13h43.797l-4.115 23.546h-65.982z"/>
  <path fill="#FA5460" d="M951.727 181.436c-3.91 5.226-7.68 10.077-11.386 14.843.815.38 2.934 1.27 4.963 2.333 7.96 4.172 12.76 10.35 12.878 19.744.122 9.742-3.704 17.372-12.45 21.574-5.135 2.468-10.978 3.534-16.576 4.934-2.047.512-4.308.204-6.471.205-13.644.013-27.287.007-41.346.007v-95.943c3.006 0 6.105-.052 9.201.01 13.297.262 26.694-.365 39.865 1.072 17.176 1.874 25.303 14.478 21.322 31.22m-26.417 20.389h-33.082v33.123c12.825 0 25.298.229 37.752-.154 3.318-.101 6.805-1.657 9.818-3.28 5.715-3.08 7.774-8.32 7.388-14.7-.362-6-3.523-10.113-8.875-12.152-3.82-1.456-8.026-1.896-13.001-2.837m-24.765-9.805c6.484 0 12.979.235 19.446-.088 3.924-.196 7.981-.75 11.668-2.033 7.347-2.559 10.853-8.575 10.304-16.353-.463-6.562-4.93-12.534-12.156-13.256-12.456-1.246-25.038-1.227-37.555-1.738v33.468zm-563.448 9.695c-.668-27.61 14.063-47.745 38.516-53.14 19.163-4.229 39.058 3.298 50.272 19.019 11.558 16.201 12.154 39.193 1.465 56.58-9.995 16.26-29.317 25.105-48.418 22.165-23.503-3.617-38.427-19.38-41.835-44.624m12.53 5.886c6.263 23.606 30.577 35.666 51.994 25.79 15.863-7.315 23.91-23.596 21.389-43.277-1.998-15.602-14.851-29.14-30.302-31.919-16.607-2.985-32.45 4.95-39.962 19.928-4.6 9.172-5.247 18.77-3.12 29.478"/>
  <path fill="#FA535F" d="M480.57 170.43c14.324 18.202 28.422 36.127 43.232 54.959V149.58h10.7v95.002c-5.212 1.471-8.938.184-12.557-4.514-17.78-23.082-35.96-45.856-54.008-68.731-.973-1.233-2.04-2.391-3.697-4.322v77.652h-10.206v-95.014c5.671-1.219 10.411-1.11 14.078 4.718 3.526 5.607 8.112 10.547 12.458 16.057"/>
  <path fill="#FA5460" d="M800.11 149.134h62.24v9.73h-57.974v32.917h51.903v9.86h-51.864v33.3H862.8v9.745h-69.374v-95.552zm-224.025 42.749h44.65v9.725h-51.507v33.271h58.36v9.927h-69.276V149.48h68.47v9.425h-57.667v32.977z"/>
  <path fill="#989898" d="M761.896 324.678c-3.712 1.32-7.407 2.18-11.672 3.172v-43.813c10.466 0 20.735-.275 30.977.129 4.447.175 7.837 4.766 8.557 10.42.736 5.77.099 11.225-4.315 15.77-.886.913-1.008 3.284-.538 4.659 1.328 3.881 3.146 7.595 5.025 11.965-3.647 0-6.642.292-9.537-.122-1.462-.208-3.059-1.444-4.02-2.667-1.093-1.391-1.523-3.297-2.28-4.96-3.264-7.174-3.27-7.171-12.18-5.73 0 3.49 0 7.103-.017 11.177m1.904-22.703c3.665.008 7.392.408 10.967-.157 1.582-.25 2.855-2.451 4.27-3.767-1.274-1.287-2.437-3.521-3.841-3.685-4.22-.492-8.535-.178-13.678-.178.537 3.003.952 5.32 2.282 7.787M889.908 308v-23.92c10.787 0 21.19-.115 31.584.121 1.58.036 3.36 1.451 4.637 2.66 4.092 3.873 5.182 12.537 2.527 18.783-2.43 5.717-7.068 7.492-12.928 7.273-4.31-.162-8.632-.032-13.808-.032v13.747h-12.012zm27.419-13.105-15.098-.967v8.077c4.24 0 8.177.125 12.102-.034 4.385-.176 5.356-2.05 2.996-7.076"/>
  <path fill="#999" d="M613.742 298.706c1.92-4.875 3.683-9.403 5.816-14.883 1.818 0 4.942-.135 8.042.082.924.065 2.225.91 2.601 1.74 6.083 13.401 12.044 26.858 18.46 41.26-4.139 0-7.371.058-10.598-.045-.717-.023-1.924-.488-2.046-.968-1.526-6.02-6.307-4.738-10.423-4.654-4.507.092-9.265-1.52-12.234 4.67-.863 1.797-7.19.972-12.256 1.472 4.508-10.233 8.493-19.28 12.638-28.674m14.175 13.305-2.066-9.233-1.698.217-3.694 9.11c2.734 0 4.677 0 7.458-.094m49.079-17.888h-6.924v32.443h-12.234c0-8.854-.251-17.617.1-26.355.19-4.696-1.074-6.791-6.011-6.143-2.406.316-4.887.055-7.578.055v-10.032h38.35v9.802c-1.713.075-3.47.153-5.703.23"/>
  <path fill="#989898" d="M460.056 310.001v16.657h-11.893V294.27h-12.9v-10.02h38.2v9.842h-13.407z"/>
  <path fill="#999" d="M542.98 326.984h-17.74v-42.845h11.475v31.817h19.672l-1.632 11.028z"/>
  <path fill="#FBFBFB" d="M364.732 299.918c-3.997.578-7.576 1.118-11.29 1.678-1.549-4.46.508-6.88 4.191-8.255 4.925-1.84 9.267.052 11.545 5.185-1.367.46-2.698.907-4.446 1.392m138.584-.288c-4.638.73-8.883 1.35-13.401 2.01-1.296-4.738 1.127-7.08 4.871-8.392 4.101-1.439 10.171.634 10.852 3.677.154.687-1.245 1.721-2.322 2.705m304.564 14.148c-.361-5.34-.94-10.328-.6-15.252.316-4.586 4.01-5.635 8.016-5.62 4.125.016 7.952.854 8.433 5.779.402 4.12.553 8.382-.097 12.435-.324 2.022-2.345 4.707-4.203 5.352-3.912 1.358-8.24 1.648-11.549-2.694"/>
  <path fill="#FFFBFB" d="M366.963 53.004c9.587-7.32 20.12-7.625 28.291-1.062 3.582 2.877 4.632 5.047 4.455 9.618l-35.967 5.812c-1.37-5.514-.88-10.151 3.221-14.368m321.827-5.017c6.79 2.206 12.062 5.432 13.467 13.426l-36.601 5.909c-2.835-13.462 7.885-22.37 23.134-19.335"/>
  <path fill="#FFF4F5" d="M968.282 77.667c1.908 4.273 3.657 8.203 5.635 12.645h-20.793l10.269-23.438c1.816 4.012 3.274 7.23 4.89 10.793"/>
  <path fill="#FFFEFE" d="M925.78 201.847c4.505.918 8.711 1.358 12.531 2.814 5.352 2.039 8.513 6.151 8.875 12.153.386 6.378-1.673 11.619-7.388 14.699-3.013 1.623-6.5 3.179-9.818 3.28-12.454.383-24.927.154-37.752.154v-33.123c10.945 0 22.014 0 33.553.023m-25.727-9.828h-7.802V158.55c12.517.511 25.1.492 37.555 1.738 7.226.722 11.693 6.694 12.156 13.256.549 7.778-2.957 13.794-10.304 16.353-3.687 1.284-7.744 1.837-11.668 2.033-6.467.323-12.962.088-19.937.088m-550.566 15.185c-1.99-10.31-1.341-19.91 3.258-29.08 7.512-14.98 23.355-22.914 39.962-19.929 15.45 2.778 28.304 16.317 30.302 31.92 2.52 19.68-5.526 35.96-21.389 43.276-21.417 9.876-45.731-2.184-52.133-26.187"/>
  <path fill="#FBFBFB" d="M763.342 301.9c-.872-2.391-1.287-4.71-1.824-7.712 5.143 0 9.458-.314 13.678.178 1.404.164 2.567 2.398 3.84 3.685-1.414 1.316-2.687 3.517-4.27 3.767-3.574.565-7.3.165-11.424.083m154.312-6.748c2.033 4.767 1.062 6.642-3.323 6.818-3.925.159-7.862.034-12.102.034v-8.077c5.101.326 10.1.646 15.425 1.225m-290.156 16.905c-2.362.048-4.305.048-7.04.048l3.695-9.111 1.698-.217c.689 3.078 1.377 6.155 1.647 9.28"/>
</svg>
